# xmcd CD database file
#
# Track frame offsets:
#	150
#	18880
#	38337
#	58650
#	73197
#	89112
#	103385
#	123647
#	137215
#	153187
#	167487
#	183887
#
# Disc length: 2646 seconds
#
# Revision: 0
# Processed by: cddbd v1.4b42PL0 Copyright (c) Steve Scherf et al.
# Submitted via: Feurio! 1.62 - http://www.feurio.com
#
DISCID=a10a540c
DTITLE=Gottlieb Wendehals - Hier Fliegen Gleich Die Löcher Aus Dem Käse
DYEAR=1900
DGENRE=
TTITLE0=Polonäse Blankenese
TTITLE1=Abfahr´n
TTITLE2=Jap Dadel Dip, Dadel Du...
TTITLE3=Das Halte Ich Im Kopf Nich´ Aus
TTITLE4=Wir Lassen Alle Fünfe Gerade Sein
TTITLE5=Mensch Ärger Dich Nich
TTITLE6=Heut´ Geht Ein Ding Ab
TTITLE7=Du Hast Geburtstag
TTITLE8=Heut´ Abend Schiessen Wir Den Vogel Ab
TTITLE9=Mach Dir Nix Draus
TTITLE10=So Bin Ich, So Bleib Ich
TTITLE11=Polonäse Blankenese
EXTD=
EXTT0=
EXTT1=
EXTT2=
EXTT3=
EXTT4=
EXTT5=
EXTT6=
EXTT7=
EXTT8=
EXTT9=
EXTT10=
EXTT11=
PLAYORDER=
